<svg xmlns="http://www.w3.org/2000/svg" width="320" height="50" viewBox="0 0 920 150">
  <g fill="none" fill-rule="evenodd">
    <path fill="#002864" d="M704.05 109.82L704.05 114.92 666.115 114.92 666.115 109.82C671.86 109.82 674.08 105.995 674.08 95.795L674.08 58.67C674.08 47.99 670.585 41.93 661.81 41.93 645.565 41.93 638.23 75.785 638.23 87.875L638.23 95.795C638.23 105.995 640.465 109.82 646.195 109.82L646.195 114.92 608.26 114.92 608.26 109.82C614.005 109.82 616.24 105.995 616.24 95.795L616.24 19.295C616.24 9.095 614.005 5.27 608.26 5.27L608.26.17 618.76.17C631.18.17 638.26 1.13 638.26 14.195L638.26 57.0036247C641.605 42.0036247 652.435 33.65 668.545 33.65 684.655 33.65 696.115 43.37 696.115 64.085L696.115 95.795C696.085 105.995 698.305 109.82 704.05 109.82zM561.22 108.08C544.975 108.08 540.865 94.31 540.865 74.93L540.865 74.93C540.865 55.565 544.975 41.78 561.22 41.78 572.395 41.78 577.51 48.005 576.88 61.79L600.385 65C599.575 46.715 586.57 33.5 561.385 33.5 529.675 33.5 517.555 53.42 517.555 74.93L517.555 74.93C517.555 96.455 529.675 116.375 561.385 116.375 586.57 116.375 599.575 103.1 600.385 84.875L576.88 88.115C577.51 101.87 572.395 108.08 561.22 108.08zM481.87 57.04L481.87 48.32C481.87 35.885 474.865 35.09 462.37 35.09L451.87 35.09 451.87 40.19C457.6 40.19 459.835 44.015 459.835 54.215L459.835 95.66C459.835 105.86 457.6 109.685 451.87 109.685L451.87 114.785 489.79 114.785 489.79 109.685C484.06 109.685 481.825 105.86 481.825 95.66L481.825 80C481.846551 72.6835964 483.925738 65.5207981 487.825 59.33 488.978194 57.4711886 491.00754 56.3374754 493.195 56.33L509.11 56.33 517.555 33.5 515.005 33.5C504.016144 33.5288147 492.72901 39.8135724 487.36383 48.6032556L481.87 57.04zM435.895 95L435.895 72.71C435.895 44.21 425.53 33.5 399.565 33.5 372.925 33.5 359.935 46.145 362.2 62L383.2 59 383.2 59C379.885 48.095 385.12 41.645 397.375 41.645 410.125 41.645 413.155 48.83 413.785 65.24 391.48 67.79 357.685 73.205 357.685 96.32 357.685 109.7 366.61 116.24 383.35 116.24 397.525 116.24 409.18 110.345 413.95 102.845L413.95 102.845 413.95 103.97C414.895 113.045 423.19 114.65 429.085 114.65 434.98 114.65 441.205 112.415 443.905 108.275L443.905 102.275C438.76 105.38 435.895 104 435.895 95zM413.905 82.25L413.905 84.17C413.905 94.67 404.65 108.065 390.955 108.065 383.14 108.065 379.63 103.925 379.63 95.48 379.63 82.565 395.095 75.56 413.905 73.49L413.905 82.25zM349 109.685L349 114.785 311.035 114.785 311.035 109.685C316.765 109.685 319 105.86 319 95.66L319 58.52C319 47.84 315.49 41.78 306.73 41.78 290.47 41.78 283.15 75.965 283.15 87.92L283.15 95.66C283.15 105.86 285.37 109.685 291.115 109.685L291.115 114.785 253.18 114.785 253.18 109.685C258.925 109.685 261.145 105.86 261.145 95.66L261.145 54.215C261.145 44.015 258.925 40.19 253.18 40.19L253.18 35.09 263.68 35.09C276.115 35.09 283.18 35.885 283.18 48.32L283.18 57.0223364C286.525 42.0223364 297.355 33.5 313.45 33.5 329.545 33.5 341.02 43.22 341.02 63.935L341.02 95.66C340.99 105.86 343.225 109.685 349 109.685zM200.035 33.5L199.825 33.5C169.705 33.5 156.16 53.42 156.16 74.93 156.16 96.44 169.66 116.375 199.825 116.375L200.035 116.375C230.155 116.375 243.7 96.455 243.7 74.93 243.7 53.405 230.155 33.5 200.035 33.5zM200.2 108.065L199.66 108.065C183.775 107.75 179.065 94.865 179.35 74.63 179.635 54.395 184.885 41.63 199.93 41.795 214.93 41.63 220.225 54.26 220.525 74.63 220.825 95 216.1 107.75 200.2 108.065zM138.715 28.715L138.715 95.66C138.715 105.86 140.95 109.685 146.695 109.685L146.695 114.785 108.76 114.785 108.76 109.685C114.49 109.685 116.725 105.86 116.725 95.66L116.725 30.32 79.75 114.785 55.75 114.785 17.605 30.32 17.605 95.66C17.605 105.86 19.84 109.685 25.57 109.685L25.57 114.785.385 114.785.385 109.685C6.13 109.685 8.365 105.86 8.365 95.66L8.365 28.715C8.365 18.515 6.13 14.69.385 14.69L.385 9.59 10.885 9.59C26.815 9.59 32.71 10.385 39.565 25.535L75.1 104.9 109.69 25.535C116.215 10.865 124.99 9.755 136.135 9.59L146.635 9.59 146.635 14.69C140.95 14.69 138.715 18.5 138.715 28.715z" transform="translate(215 13)"/>
    <g fill="#FF7369">
      <path d="M82.03123,39.84375 C82.0242969,50.7693779 85.62379,60.0926846 96.09373,63.28125 L119.53123,72.65625 C120.663352,72.9993009 121.873126,73.8191097 121.87498,75 C121.879755,76.1864338 120.668677,76.9990945 119.53123,77.34375 L96.09373,86.71875 C85.6546073,89.914443 82.0331766,99.257948 82.0312351,110.15625 L82.0312001,145.3125 C115.643061,135.926173 138.28123,109.836163 138.28123,75 C138.28123,40.1638371 115.643061,14.0738267 82.0312001,4.6875 L82.03123,39.84375 Z" transform="matrix(-1 0 0 1 220.312 0)"/>
      <path d="M11.71875,39.84375 C11.7118168,50.7693779 15.31131,60.0926846 25.78125,63.28125 L49.21875,72.65625 C50.3508716,72.9993009 51.5606457,73.8191097 51.5625,75 C51.5672753,76.1864338 50.3561965,76.9990945 49.21875,77.34375 L25.78125,86.71875 C15.3421272,89.914443 11.7206966,99.257948 11.718755,110.15625 L11.7187201,145.3125 C45.330581,135.926173 67.96875,109.836163 67.96875,75 C67.96875,40.1638371 45.330581,14.0738267 11.7187201,4.6875 L11.71875,39.84375 Z"/>
    </g>
  </g>
</svg>
